<svg height="496pt" viewBox="-15 0 495 496" width="496pt" xmlns="http://www.w3.org/2000/svg">
    <path d="m424.5 8v144h-128v-96h-128v-48zm0 0" fill="#ccd1d9"/>
    <path d="m296.5 56v96h-96l-27.28125-27.28125c-3.039062-3.039062-7.117188-4.71875-11.359375-4.71875h-121.359375v-64zm0 0"
          fill="#e6e9ed"/>
    <path d="m456.5 168v16h-448v-48c0-8.800781 7.199219-16 16-16h137.359375c4.242187 0 8.320313 1.679688 11.359375 4.71875l27.28125 27.28125h240c8.800781 0 16 7.199219 16 16zm0 0"
          fill="#8cc152"/>
    <path d="m456.5 184v208c0 8.800781-7.199219 16-16 16h-84.078125c7.757813-17.039062 12.078125-36 12.078125-56 0-75.121094-60.878906-136-136-136s-136 60.878906-136 136c0 20 4.320312 38.960938 12.078125 56h-84.078125c-8.800781 0-16-7.199219-16-16v-208zm0 0"
          fill="#b4dd7f"/>
    <path d="m356.421875 408c-21.28125 47.199219-68.800781 80-123.921875 80s-102.640625-32.800781-123.921875-80c-7.757813-17.039062-12.078125-36-12.078125-56 0-75.121094 60.878906-136 136-136s136 60.878906 136 136c0 20-4.320312 38.960938-12.078125 56zm0 0"
          fill="#e6e9ed"/>
    <path d="m251.539062 291.761719c-1.917968-3.441407-3.039062-7.441407-3.039062-11.761719 0-13.28125 10.71875-24 24-24s24 10.71875 24 24-10.71875 24-24 24c-8.960938 0-16.800781-4.960938-20.960938-12.238281zm0 0"
          fill="#ffc729"/>
    <path d="m251.539062 412.238281c4.160157-7.277343 12-12.238281 20.960938-12.238281 13.28125 0 24 10.71875 24 24s-10.71875 24-24 24-24-10.71875-24-24c0-4.320312 1.121094-8.320312 3.039062-11.761719zm0 0"
          fill="#ffc729"/>
    <path d="m196.101562 323.039062c7.597657 7.28125 12.398438 17.601563 12.398438 28.960938s-4.800781 21.679688-12.398438 28.960938h-.082031c-7.199219 6.878906-16.878906 11.039062-27.519531 11.039062-22.078125 0-40-17.921875-40-40s17.921875-40 40-40c10.640625 0 20.320312 4.160156 27.519531 11.039062zm0 0"
          fill="#fcd770"/>
    <path d="m272.5 312c17.648438 0 32-14.351562 32-32s-14.351562-32-32-32-32 14.351562-32 32c0 2.832031.488281 5.535156 1.183594 8.152344l-44.824219 25.207031c-7.953125-5.855469-17.742187-9.359375-28.359375-9.359375-26.472656 0-48 21.527344-48 48s21.527344 48 48 48c10.617188 0 20.40625-3.503906 28.359375-9.359375l44.824219 25.207031c-.695313 2.617188-1.183594 5.320313-1.183594 8.152344 0 17.648438 14.351562 32 32 32s32-14.351562 32-32-14.351562-32-32-32c-9.046875 0-17.191406 3.808594-23.015625 9.863281l-41.136719-23.136719c5.144532-7.636718 8.152344-16.839843 8.152344-26.726562s-3.007812-19.089844-8.152344-26.726562l41.136719-23.136719c5.824219 6.054687 13.96875 9.863281 23.015625 9.863281zm0 96c8.824219 0 16 7.175781 16 16s-7.175781 16-16 16-16-7.175781-16-16 7.175781-16 16-16zm-104-24c-17.648438 0-32-14.351562-32-32s14.351562-32 32-32 32 14.351562 32 32-14.351562 32-32 32zm104-120c8.824219 0 16 7.175781 16 16s-7.175781 16-16 16-16-7.175781-16-16 7.175781-16 16-16zm0 0"/>
    <path d="m440.5 144h-8v-144h-272v48h-128v64h-8c-13.230469 0-24 10.769531-24 24v256c0 13.230469 10.769531 24 24 24h79.199219c23.617187 47.335938 72.410156 80 128.800781 80s105.183594-32.664062 128.800781-80h79.199219c13.230469 0 24-10.769531 24-24v-224c0-13.230469-10.769531-24-24-24zm-264-128h240v128h-112v-96h-128zm-128 48h240v80h-84.6875l-24.96875-24.96875c-4.527344-4.535156-10.558594-7.03125-16.96875-7.03125h-113.375zm-24 64h137.375c2.105469 0 4.167969.847656 5.65625 2.34375l29.65625 29.65625h243.3125c4.414062 0 8 3.585938 8 8v8h-432v-40c0-4.414062 3.585938-8 8-8zm208 352c-70.574219 0-128-57.425781-128-128s57.425781-128 128-128 128 57.425781 128 128-57.425781 128-128 128zm208-80h-72.398438c5.34375-15.039062 8.398438-31.152344 8.398438-48 0-79.398438-64.601562-144-144-144s-144 64.601562-144 144c0 16.847656 3.0625 32.960938 8.398438 48h-72.398438c-4.414062 0-8-3.585938-8-8v-200h432v200c0 4.414062-3.585938 8-8 8zm0 0"/>
    <path d="m48.5 144h112v16h-112zm0 0"/>
    <path d="m64.5 80h208v16h-208zm0 0"/>
    <path d="m208.5 112h64v16h-64zm0 0"/>
    <path d="m320.5 32h80v16h-80zm0 0"/>
    <path d="m320.5 64h80v16h-80zm0 0"/>
    <path d="m320.5 96h80v16h-80zm0 0"/>
</svg>